<svg width="159" height="28" viewBox="0 0 159 28" fill="none" xmlns="http://www.w3.org/2000/svg">
  <path d="M42.3467 8.43652L35.8516 19.5953H37.8391L43.199 10.5645L46.185 15.6078H43.3993H41.9365L40.9221 17.3306H47.2042L48.5461 19.5953H50.532L44.0369 8.43652H42.3467Z" fill="white"/>
  <path d="M73.5631 17.9729C70.054 17.9729 68.3479 16.6783 68.3479 14.0134C68.3479 11.3484 70.054 10.039 73.5631 10.039C78.5526 10.039 78.5526 12.5903 78.5526 12.5903H80.4415C80.4415 12.5903 80.4526 8.23877 73.5631 8.23877C71.1781 8.23877 69.3671 8.79218 68.1842 9.88089C67.1125 10.8625 66.5703 12.2527 66.5703 14.0134C66.5703 15.7741 67.1141 17.151 68.1842 18.1327C69.3655 19.2214 71.1765 19.7731 73.5647 19.7731C80.4542 19.7731 80.4542 15.3771 80.4542 15.3771H78.5526C78.5526 15.3771 78.2727 17.9745 73.5631 17.9745V17.9729Z" fill="white"/>
  <path d="M94.6878 9.8677C93.5049 8.779 91.6955 8.22559 89.3089 8.22559C86.9223 8.22559 85.1128 8.77735 83.9299 9.86606C82.8582 10.8477 82.3145 12.2345 82.3145 13.9837C82.3145 15.7329 82.8582 17.1345 83.9299 18.1178C85.1128 19.1966 86.9223 19.7435 89.3073 19.7435C91.6923 19.7435 93.5033 19.1966 94.6862 18.1178C95.7579 17.1362 96.3017 15.7444 96.3017 13.9854C96.3017 12.2263 95.7579 10.851 94.6862 9.8677H94.6878ZM89.3089 17.9597C85.8013 17.9597 84.0953 16.6602 84.0953 13.9854C84.0953 11.3105 85.8013 10.0258 89.3089 10.0258C92.8164 10.0258 94.5225 11.3204 94.5225 13.9854C94.5225 16.6503 92.8164 17.9597 89.3089 17.9597Z" fill="white"/>
  <path d="M109.365 14.1927C109.365 16.767 107.885 18.0188 104.84 18.0188C101.795 18.0188 100.315 16.767 100.315 14.1927V8.43457H98.5195V14.1927C98.5195 15.8579 99.0108 17.1903 99.9807 18.1522C101.06 19.2277 102.695 19.7746 104.84 19.7746C106.985 19.7746 108.619 19.2294 109.699 18.1522C110.658 17.1903 111.144 15.8595 111.144 14.1943V8.43622H109.363V14.1943L109.365 14.1927Z" fill="white"/>
  <path d="M125.894 12.4832C125.894 10.6352 125.057 8.43311 121.066 8.43311H114.028V19.5952H115.825V10.1279H121.066C123.797 10.1279 124.112 11.4719 124.112 12.4816C124.112 13.4912 123.797 14.8385 121.066 14.8385H117.639V16.5169L121.905 16.4889L124.332 19.5952H126.438L123.689 16.0837C125.154 15.4792 125.893 14.2686 125.893 12.4816L125.894 12.4832Z" fill="white"/>
  <path d="M63.0498 14.0579C62.0958 13.4847 60.3976 13.1998 57.8616 13.1899C55.9504 13.18 54.6546 13.0005 54.0138 12.6546C53.629 12.4438 53.4493 12.093 53.4493 11.5494C53.4493 11.0421 53.6624 10.6963 54.1235 10.4624C54.804 10.105 56.0617 9.92378 57.86 9.92378C59.6583 9.92378 60.9303 10.0407 61.5631 10.4755C62.3072 10.9878 62.242 12.0188 62.242 12.0205H64.0228C64.0228 12.0205 64.255 10.1247 62.7572 9.17767C61.7809 8.56002 60.1798 8.26025 57.8616 8.26025C55.5434 8.26025 53.9422 8.55014 52.9564 9.14472C52.0947 9.67178 51.6574 10.4821 51.6574 11.5511C51.6574 12.62 52.0565 13.4518 52.842 13.9294C53.7689 14.4944 55.4098 14.7744 57.86 14.7843C59.857 14.7941 61.2117 14.9803 61.8843 15.3377C62.3056 15.56 62.5012 15.9158 62.5012 16.456C62.5012 16.9963 62.2707 17.3339 61.7762 17.5843C61.0543 17.9433 59.7378 18.1261 57.8616 18.1261C55.9854 18.1261 54.653 17.9565 53.9534 17.5727C53.1806 17.1494 53.222 15.9718 53.222 15.9718H51.4412C51.4412 15.9718 51.19 17.8955 52.7847 18.864C53.7976 19.4784 55.4591 19.7781 57.8616 19.7781C60.2641 19.7781 61.9209 19.4899 62.9337 18.897C63.8273 18.3715 64.282 17.5497 64.282 16.456C64.282 15.3624 63.867 14.5487 63.0514 14.0612L63.0498 14.0579Z" fill="white"/>
  <path d="M154.524 13.2046H147.447V14.8253H154.524V13.2046Z" fill="white"/>
  <path d="M155.025 8.43311H143.836V19.5969H155.025V17.9004H145.63V10.1296H155.025V8.43311Z" fill="white"/>
  <path d="M140.016 14.0579C139.062 13.4847 137.363 13.1998 134.827 13.1899C132.916 13.18 131.62 13.0005 130.98 12.6546C130.595 12.4438 130.415 12.093 130.415 11.5494C130.415 11.0421 130.628 10.6963 131.089 10.4624C131.77 10.105 133.028 9.92378 134.826 9.92378C136.624 9.92378 137.898 10.0407 138.529 10.4755C139.273 10.9878 139.208 12.0188 139.208 12.0205H140.989C140.989 12.0205 141.221 10.1247 139.723 9.17767C138.747 8.56002 137.146 8.26025 134.827 8.26025C132.509 8.26025 130.908 8.55014 129.922 9.14472C129.06 9.67178 128.623 10.4821 128.623 11.5511C128.623 12.62 129.022 13.4518 129.808 13.9294C130.733 14.4944 132.376 14.7744 134.826 14.7843C136.824 14.7941 138.178 14.9803 138.85 15.3377C139.271 15.56 139.467 15.9158 139.467 16.456C139.467 16.9963 139.236 17.3339 138.742 17.5843C138.02 17.9433 136.704 18.1261 134.827 18.1261C132.951 18.1261 131.619 17.9565 130.919 17.5727C130.146 17.1494 130.188 15.9718 130.188 15.9718H128.407C128.407 15.9718 128.156 17.8955 129.751 18.864C130.763 19.4784 132.425 19.7781 134.827 19.7781C137.23 19.7781 138.888 19.4899 139.9 18.897C140.793 18.3715 141.246 17.5497 141.246 16.456C141.246 15.3624 140.833 14.5487 140.016 14.0612V14.0579Z" fill="white"/>
  <path d="M28.6487 8.43652H22.3301V19.597H24.122V10.217H28.6503C31.8923 10.217 33.4664 11.4605 33.4664 14.0168C33.4664 16.573 31.8923 17.8033 28.6503 17.8033H25.9108V19.5986H28.6503C33.0244 19.5986 35.2425 17.721 35.2425 14.0168C35.2425 10.3125 33.0244 8.43817 28.6503 8.43817L28.6487 8.43652Z" fill="white"/>
  <path d="M14.1989 19.7628C14.0287 19.7628 13.8141 19.6607 13.4595 19.4894L12.1764 18.8767L10.7009 18.1635C10.6516 18.1421 10.6198 18.1289 10.5784 18.1289C10.5768 18.1289 10.5737 18.1289 10.5721 18.1289C10.5307 18.1289 10.4973 18.1421 10.4481 18.1635L8.97253 18.8767L7.6894 19.4894C7.33483 19.6591 7.12018 19.7628 6.95005 19.7628C6.69724 19.7628 6.49531 19.5125 6.004 18.9064L4.35358 16.8755C4.08487 16.5395 3.97198 16.3715 3.97516 16.1904C3.97834 16.0026 4.10236 15.7885 4.35994 15.3619L8.12188 9.1393L8.14414 9.10307C8.39695 8.68142 8.52256 8.4706 8.69905 8.37177C8.87554 8.27295 9.12517 8.27295 9.62125 8.27295H11.5308C12.0269 8.27295 12.2766 8.27295 12.453 8.37177C12.6295 8.4706 12.7551 8.68307 13.008 9.10307L13.0286 9.1393L16.7906 15.3635C17.0481 15.7901 17.1706 16.0042 17.1738 16.192C17.1769 16.3732 17.0656 16.5428 16.7953 16.8772L15.1449 18.908C14.6536 19.5141 14.4501 19.7645 14.1989 19.7645V19.7628ZM15.7396 18.0005L10.5737 9.40613L5.40775 18.0005L10.518 15.5579C10.518 15.5579 10.5578 15.5431 10.5816 15.5431C10.6071 15.5431 10.6452 15.5579 10.6452 15.5579L15.7412 18.0005H15.7396Z" fill="#FF5F00"/>
</svg>
