<svg width="248" height="30" viewBox="0 0 248 30" fill="none" xmlns="http://www.w3.org/2000/svg">
  <path d="M34.2096 6.79492L25.1254 22.6412H27.903L35.4025 9.8171L39.5813 16.9801H35.6827H33.6367L32.2182 19.4234H41.0073L42.8822 22.6412H45.6622L36.5755 6.79492H34.2096Z" fill="#FF5F00"/>
  <path d="M77.8795 20.3358C72.9716 20.3358 70.5859 18.4974 70.5859 14.7138C70.5859 10.9303 72.9716 9.07105 77.8795 9.07105C84.8583 9.07105 84.8583 12.693 84.8583 12.693H87.5019C87.5019 12.693 87.5193 6.51562 77.8795 6.51562C74.5415 6.51562 72.0094 7.30051 70.3552 8.8468C68.8573 10.2392 68.0959 12.2158 68.0959 14.7138C68.0959 17.2119 68.8548 19.1702 70.3527 20.5626C72.0069 22.1089 74.539 22.8912 77.8795 22.8912C87.5168 22.8912 87.5168 16.6487 87.5168 16.6487H84.8583C84.8583 16.6487 84.4664 20.3358 77.8795 20.3358Z" fill="#FF5F00"/>
  <path d="M107.429 8.82922C105.775 7.28293 103.243 6.49805 99.9044 6.49805C96.5664 6.49805 94.0343 7.28293 92.3801 8.82661C90.8797 10.2217 90.1208 12.1878 90.1208 14.6754C90.1208 17.163 90.8822 19.15 92.3826 20.5451C94.0368 22.0757 96.5688 22.8528 99.9044 22.8528C103.24 22.8528 105.772 22.0757 107.429 20.5451C108.929 19.15 109.688 17.1761 109.688 14.6754C109.688 12.1747 108.929 10.2243 107.429 8.82922ZM99.9044 20.3182C94.9965 20.3182 92.6108 18.472 92.6108 14.6754C92.6108 10.8788 94.9965 9.05347 99.9044 9.05347C104.812 9.05347 107.198 10.8918 107.198 14.6754C107.198 18.459 104.812 20.3182 99.9044 20.3182Z" fill="#FF5F00"/>
  <path d="M127.961 14.9703C127.961 18.6261 125.89 20.4019 121.629 20.4019C117.369 20.4019 115.298 18.6261 115.298 14.9703V6.79297H112.788V14.9703C112.788 17.3354 113.475 19.2259 114.831 20.5923C116.342 22.1203 118.628 22.8947 121.629 22.8947C124.63 22.8947 126.917 22.1203 128.427 20.5923C129.769 19.2259 130.448 17.3354 130.448 14.9729V6.79558H127.958V14.9729L127.961 14.9703Z" fill="#FF5F00"/>
  <path d="M151.087 12.5427C151.087 9.91945 149.914 6.79297 144.331 6.79297H134.486V22.6444H136.998V9.20237H144.331C148.153 9.20237 148.594 11.1111 148.594 12.5453C148.594 13.9794 148.153 15.8908 144.331 15.8908H139.54V18.2741L145.509 18.235L148.904 22.6444H151.851L148.004 17.6587C150.053 16.8008 151.087 15.0825 151.087 12.5453V12.5427Z" fill="#FF5F00"/>
  <path d="M63.1707 14.7774C61.834 13.9638 59.4606 13.5596 55.9142 13.544C53.2408 13.531 51.4279 13.2754 50.5326 12.7826C49.9945 12.4827 49.7415 11.9847 49.7415 11.2128C49.7415 10.4931 50.0391 10.0029 50.6839 9.66913C51.6362 9.16065 53.3946 8.90511 55.9118 8.90511C58.429 8.90511 60.2071 9.072 61.0925 9.68738C62.1341 10.4149 62.0423 11.8804 62.0423 11.8804H64.5322C64.5322 11.8804 64.8546 9.18673 62.7615 7.84383C61.395 6.96768 59.1556 6.54004 55.9118 6.54004C52.6679 6.54004 50.4285 6.94943 49.0496 7.79689C47.8443 8.54526 47.2318 9.69521 47.2318 11.2154C47.2318 12.7356 47.7898 13.9143 48.8884 14.5922C50.183 15.3954 52.4794 15.7917 55.9093 15.8074C58.7042 15.8204 60.5965 16.0864 61.5389 16.5922C62.1291 16.9078 62.4019 17.411 62.4019 18.1803C62.4019 18.9495 62.0795 19.4267 61.3876 19.7839C60.3782 20.295 58.5356 20.5532 55.9118 20.5532C53.2879 20.5532 51.423 20.3133 50.4434 19.7683C49.3621 19.1659 49.4191 17.4945 49.4191 17.4945H46.9292C46.9292 17.4945 46.577 20.2272 48.809 21.6014C50.2276 22.4749 52.5489 22.9 55.9118 22.9C59.2746 22.9 61.591 22.4906 63.007 21.6483C64.257 20.9026 64.8918 19.737 64.8918 18.1829C64.8918 16.6288 64.3115 15.4736 63.1707 14.7826V14.7774Z" fill="#FF5F00"/>
  <path d="M191.136 13.5674H181.236V15.8673H191.136V13.5674Z" fill="#FF5F00"/>
  <path d="M191.835 6.79297H176.184V22.6418H191.835V20.235H178.694V9.19976H191.835V6.79297Z" fill="#FF5F00"/>
  <path d="M170.84 14.7774C169.503 13.9638 167.13 13.5596 163.583 13.544C160.91 13.531 159.097 13.2754 158.202 12.7826C157.664 12.4827 157.411 11.9847 157.411 11.2128C157.411 10.4931 157.708 10.0029 158.353 9.66913C159.305 9.16065 161.064 8.90511 163.581 8.90511C166.098 8.90511 167.876 9.072 168.762 9.68738C169.803 10.4149 169.711 11.8804 169.711 11.8804H172.201C172.201 11.8804 172.526 9.18673 170.431 7.84383C169.064 6.96768 166.825 6.54004 163.581 6.54004C160.337 6.54004 158.098 6.94943 156.719 7.79689C155.513 8.54526 154.901 9.69521 154.901 11.2154C154.901 12.7356 155.459 13.9143 156.557 14.5922C157.852 15.3954 160.149 15.7917 163.578 15.8074C166.373 15.8204 168.266 16.0864 169.208 16.5922C169.798 16.9078 170.071 17.411 170.071 18.1803C170.071 18.9495 169.749 19.4267 169.057 19.7839C168.047 20.295 166.205 20.5532 163.581 20.5532C160.957 20.5532 159.092 20.3133 158.112 19.7683C157.031 19.1659 157.088 17.4945 157.088 17.4945H154.598C154.598 17.4945 154.246 20.2272 156.478 21.6014C157.897 22.4749 160.218 22.9 163.581 22.9C166.944 22.9 169.26 22.4906 170.676 21.6483C171.926 20.9026 172.561 19.737 172.561 18.1829C172.561 16.6288 171.981 15.4736 170.84 14.7826V14.7774Z" fill="#FF5F00"/>
  <path d="M15.049 6.79492H6.20776V22.6412H8.71256V9.32166H15.0465C19.5824 9.32166 21.7846 11.087 21.7846 14.7167C21.7846 18.3465 19.5824 20.0936 15.0465 20.0936H11.2149V22.6412H15.0465C21.1646 22.6412 24.2696 19.9736 24.2696 14.7167C24.2696 9.45986 21.1646 6.79492 15.0465 6.79492H15.049Z" fill="#FF5F00"/>
  <path d="M205.187 12.8999H204.044L202.253 10.2871H201.209V12.8999H200.257V6.80078H201.209V9.32752H202.204L203.92 6.80078H205.014L203 9.72909L205.187 12.8999Z" fill="#FF5F00"/>
  <path d="M208.104 9.76299L209.23 6.80078H210.232L207.903 12.8999H206.909L207.754 10.6782H206.685L205.143 6.80078H206.17L207.305 9.76299H208.102H208.104Z" fill="#FF5F00"/>
  <path d="M213.134 6.80078C213.565 6.80078 213.945 6.88683 214.277 7.06154C214.609 7.23625 214.867 7.47875 215.051 7.78905C215.237 8.09935 215.328 8.45398 215.328 8.84773C215.328 9.24147 215.237 9.5961 215.051 9.9064C214.865 10.2167 214.607 10.4592 214.277 10.6339C213.947 10.8086 213.565 10.8947 213.134 10.8947H211.891V12.8999H210.939V6.80078H213.136H213.134ZM213.134 9.9377C213.525 9.9377 213.823 9.84382 214.029 9.65347C214.232 9.46572 214.336 9.19714 214.336 8.84773C214.336 8.49831 214.235 8.22973 214.029 8.04199C213.826 7.85424 213.525 7.75776 213.134 7.75776H211.891V9.93509H213.134V9.9377Z" fill="#FF5F00"/>
  <path d="M217.439 12.592C216.977 12.3156 216.613 11.9375 216.35 11.4551C216.085 10.9727 215.953 10.4382 215.953 9.85146C215.953 9.26475 216.085 8.7302 216.35 8.2478C216.615 7.76539 216.977 7.3873 217.439 7.11089C217.9 6.83449 218.413 6.69629 218.976 6.69629C219.44 6.69629 219.864 6.79277 220.244 6.98312C220.623 7.17348 220.943 7.43684 221.201 7.77061C221.459 8.10438 221.642 8.47726 221.751 8.88926H220.732C220.588 8.51116 220.365 8.21129 220.06 7.98704C219.755 7.76279 219.393 7.65066 218.974 7.65066C218.587 7.65066 218.24 7.74453 217.93 7.93489C217.62 8.12263 217.379 8.38339 217.206 8.71455C217.032 9.04571 216.945 9.42381 216.945 9.84624C216.945 10.2687 217.032 10.6468 217.206 10.9779C217.379 11.3091 217.622 11.5698 217.93 11.7576C218.24 11.9453 218.587 12.0418 218.974 12.0418C219.415 12.0418 219.792 11.9193 220.105 11.6768C220.417 11.4316 220.64 11.1135 220.772 10.7172H221.791C221.674 11.1657 221.484 11.562 221.218 11.9062C220.953 12.2504 220.628 12.5216 220.241 12.712C219.854 12.9023 219.433 12.9988 218.974 12.9988C218.411 12.9988 217.897 12.8606 217.436 12.5842L217.439 12.592Z" fill="#FF5F00"/>
  <path d="M204.027 19.0687V16.542H204.979V22.6411H204.027V20.0283H201.209V22.6411H200.257V16.542H201.209V19.0687H204.027Z" fill="#FF5F00"/>
  <path d="M211.377 22.6411H210.39L209.969 21.074H207.243L206.822 22.6411H205.852L207.526 16.542H209.706L211.38 22.6411H211.377ZM208.21 17.4573L207.499 20.1144H209.711L208.999 17.4573H208.213H208.21Z" fill="#FF5F00"/>
  <path d="M216.449 19.5042L217.575 16.542H218.577L216.248 22.6411H215.254L216.1 20.4195H215.031L213.488 16.542H214.515L215.651 19.5042H216.447H216.449Z" fill="#FF5F00"/>
  <path d="M220.273 22.3313C219.812 22.0549 219.448 21.6768 219.185 21.1944C218.919 20.712 218.788 20.1774 218.788 19.5907C218.788 19.004 218.919 18.4695 219.185 17.9871C219.45 17.5047 219.812 17.1266 220.273 16.8502C220.735 16.5737 221.248 16.4355 221.811 16.4355C222.275 16.4355 222.699 16.532 223.078 16.7224C223.46 16.9153 223.778 17.1761 224.036 17.5099C224.293 17.8436 224.477 18.2165 224.586 18.6285H223.567C223.423 18.2504 223.2 17.9505 222.895 17.7263C222.59 17.502 222.228 17.3899 221.808 17.3899C221.422 17.3899 221.074 17.4838 220.764 17.6741C220.454 17.8619 220.214 18.1226 220.04 18.4538C219.867 18.785 219.78 19.1631 219.78 19.5855C219.78 20.0079 219.867 20.386 220.04 20.7172C220.214 21.0483 220.457 21.3091 220.764 21.4969C221.074 21.6846 221.422 21.7811 221.808 21.7811C222.25 21.7811 222.627 21.6585 222.939 21.416C223.252 21.1709 223.475 20.8528 223.606 20.4564H224.626C224.509 20.9049 224.318 21.3013 224.053 21.6455C223.788 21.9897 223.463 22.2609 223.076 22.4512C222.689 22.6416 222.267 22.7381 221.808 22.7381C221.246 22.7381 220.732 22.5999 220.271 22.3235L220.273 22.3313Z" fill="#FF5F00"/>
  <path d="M226.617 22.6411H225.665V16.542H230.347V22.6411H229.395V17.499H226.619V22.6411H226.617Z" fill="#FF5F00"/>
  <path d="M232.708 20.0257V21.6815H235.9V22.6411H231.756V16.542H235.858V17.5016H232.708V19.0687H235.401V20.0283H232.708V20.0257Z" fill="#FF5F00"/>
  <path d="M237.482 22.6411H236.438L238.038 19.5485L236.562 16.542H237.624L238.841 19.087H239.404L240.622 16.542H241.666L240.19 19.5485L241.79 22.6411H240.729L239.387 20.0022H238.824L237.482 22.6411Z" fill="#FF5F00"/>
</svg>
