<svg xmlns="http://www.w3.org/2000/svg" id="ui-icons-sprite">
    <symbol id="menu" viewBox="0 0 18 12">
        <svg width="18" height="12" viewBox="0 0 18 12" xmlns="http://www.w3.org/2000/svg">
            <path d="M1 12H17C17.55 12 18 11.55 18 11C18 10.45 17.55 10 17 10H1C0.45 10 0 10.45 0 11C0 11.55 0.45 12 1 12ZM1 7H17C17.55 7 18 6.55 18 6C18 5.45 17.55 5 17 5H1C0.45 5 0 5.45 0 6C0 6.55 0.45 7 1 7ZM0 1C0 1.55 0.45 2 1 2H17C17.55 2 18 1.55 18 1C18 0.45 17.55 0 17 0H1C0.45 0 0 0.45 0 1Z" />
        </svg>
    </symbol>

    <symbol id="arrowDiag" viewBox="0 0 24 24">
        <svg width="24" height="24" viewBox="0 0 24 24" xmlns="http://www.w3.org/2000/svg">
            <path d="M8.41421 16.9929L16.3126 9.09455L16.3126 16.9959C16.3126 17.5475 16.7651 18 17.3167 18C17.8682 18 18.3137 17.5545 18.3137 17.003L18.3137 6.68331C18.3137 6.13177 17.8682 5.68629 17.3167 5.68629L6.99702 5.67215C6.44548 5.67215 6 6.11763 6 6.66917C6 7.22071 6.44548 7.66619 6.99702 7.66619L14.8984 7.68033L7 15.5787C6.61109 15.9676 6.61109 16.604 7 16.9929C7.38891 17.3818 8.0253 17.3818 8.41421 16.9929Z" />
        </svg>
    </symbol>

    <symbol id="arrowBack" viewBox="0 0 16 16">
        <svg width="16" height="16" viewBox="0 0 16 16" xmlns="http://www.w3.org/2000/svg">
            <path d="M15 6.99997H3.82998L8.70998 2.11997C9.09998 1.72997 9.09998 1.08997 8.70998 0.699971C8.31998 0.309971 7.68998 0.309971 7.29998 0.699971L0.70998 7.28997C0.31998 7.67997 0.31998 8.30997 0.70998 8.69997L7.29998 15.29C7.68998 15.68 8.31998 15.68 8.70998 15.29C9.09998 14.9 9.09998 14.27 8.70998 13.88L3.82998 8.99997H15C15.55 8.99997 16 8.54997 16 7.99997C16 7.44997 15.55 6.99997 15 6.99997Z" />
        </svg>
    </symbol>

    <symbol id="arrowForward" viewBox="0 0 16 16">
        <svg width="16" height="16" viewBox="0 0 16 16" xmlns="http://www.w3.org/2000/svg">
            <path d="M1 8.99997H12.17L7.29 13.88C6.9 14.27 6.9 14.91 7.29 15.3C7.68 15.69 8.31 15.69 8.7 15.3L15.29 8.70997C15.68 8.31997 15.68 7.68997 15.29 7.29997L8.71 0.699971C8.32 0.309971 7.69 0.309971 7.3 0.699971C6.91 1.08997 6.91 1.71997 7.3 2.10997L12.17 6.99997H1C0.45 6.99997 0 7.44997 0 7.99997C0 8.54997 0.45 8.99997 1 8.99997Z" />
        </svg>
    </symbol>

    <symbol id="arrowUp" viewBox="0 0 24 24">
        <svg width="24" height="24" viewBox="0 0 24 24" xmlns="http://www.w3.org/2000/svg">
            <g clip-path="url(#clip0_89_1189)">
                <path d="M13.0002 19V7.82998L17.8802 12.71C18.2702 13.1 18.9102 13.1 19.3002 12.71C19.6902 12.32 19.6902 11.69 19.3002 11.3L12.7102 4.70998C12.3202 4.31998 11.6902 4.31998 11.3002 4.70998L4.70021 11.29C4.31021 11.68 4.31021 12.31 4.70021 12.7C5.09021 13.09 5.72022 13.09 6.11022 12.7L11.0002 7.82998V19C11.0002 19.55 11.4502 20 12.0002 20C12.5502 20 13.0002 19.55 13.0002 19Z" />
            </g>
            <defs>
                <clipPath id="clip0_89_1189">
                    <rect width="24" height="24"/>
                </clipPath>
            </defs>
        </svg>
    </symbol>

    <symbol id="arrowDown" viewBox="0 0 24 24">
        <svg width="24" height="24" viewBox="0 0 24 24" xmlns="http://www.w3.org/2000/svg">
            <g clip-path="url(#clip0_89_1229)">
                <path d="M11.0002 5V16.17L6.12021 11.29C5.73021 10.9 5.09021 10.9 4.70021 11.29C4.31021 11.68 4.31021 12.31 4.70021 12.7L11.2902 19.29C11.6802 19.68 12.3102 19.68 12.7002 19.29L19.2902 12.7C19.6802 12.31 19.6802 11.68 19.2902 11.29C18.9002 10.9 18.2702 10.9 17.8802 11.29L13.0002 16.17V5C13.0002 4.45 12.5502 4 12.0002 4C11.4502 4 11.0002 4.45 11.0002 5Z" />
            </g>
            <defs>
                <clipPath id="clip0_89_1229">
                    <rect width="24" height="24"/>
                </clipPath>
            </defs>
        </svg>

    </symbol>

    <!--    social-->
    <symbol id="phone" viewBox="0 0 24 24">
        <svg xmlns="http://www.w3.org/2000/svg" width="24" height="24" viewBox="0 0 24 24"><path d="M12 0a12 12 0 1 0 0 24 12 12 0 0 0 0-24Zm-.068 9.143a2.932 2.932 0 0 1 2.933 2.928.283.283 0 1 1-.566 0 2.379 2.379 0 0 0-2.367-2.366.281.281 0 0 1 0-.563Zm0-2.322a5.28 5.28 0 0 1 5.25 5.25.283.283 0 1 1-.566 0 4.708 4.708 0 0 0-4.684-4.683.283.283 0 1 1 0-.567Zm6.27 11.697a3.38 3.38 0 0 1-4.26.404 31.93 31.93 0 0 1-8.89-8.906 3.352 3.352 0 0 1 .434-4.211l.57-.57a1.374 1.374 0 0 1 1.943 0L9.4 6.641a1.35 1.35 0 0 1 .405.968 1.484 1.484 0 0 1-.558 1.129 1.257 1.257 0 0 0-.18 1.575 14.801 14.801 0 0 0 4.616 4.623 1.272 1.272 0 0 0 1.582-.176 1.413 1.413 0 0 1 2.1-.158l1.403 1.403a1.375 1.375 0 0 1 .405.971c.045.649-.566 1.129-.971 1.541Zm.732-6.447c.078-3.761-3.237-7.08-7.002-7.001a.283.283 0 1 1 0-.566A7.567 7.567 0 0 1 19.5 12.07a.283.283 0 1 1-.566 0Z"/></svg>
    </symbol>
    <symbol id="email" viewBox="0 0 24 24">
        <svg width="24" height="24" viewBox="0 0 24 24" xmlns="http://www.w3.org/2000/svg">
            <path fill-rule="evenodd" clip-rule="evenodd" d="M12 0C18.6274 0 24 5.37258 24 12C24 18.6274 18.6274 24 12 24C5.37258 24 0 18.6274 0 12C0 5.37258 5.37258 0 12 0ZM19.6172 16.6519V7.73334L15.1576 12.1926L19.6172 16.6519ZM5.3355 16.8336H18.6648L14.591 12.7598L13.0383 14.3122C12.963 14.3873 12.8611 14.4294 12.7547 14.4294H11.2454C11.1927 14.4294 11.1405 14.4191 11.0919 14.399C11.0432 14.3789 10.999 14.3494 10.9617 14.3122L9.40912 12.7598L5.33531 16.8336H5.3355ZM4.38281 7.73306V16.6522L8.84236 12.1926L4.38281 7.73306ZM19.0503 7.16639H4.95L11.4114 13.6278H12.5888L19.0503 7.16639Z"/>
        </svg>
    </symbol>
</svg>
