<svg width="92" height="92" viewBox="0 0 92 92" fill="none" xmlns="http://www.w3.org/2000/svg">
  <path d="M46.4138 90.3389V46.4138H90.3389L87.7977 48.7765L88.3629 49.3822L92 46L88.3629 42.6178L87.7977 43.2235L90.3404 45.5862H48.0794L87.1231 29.4143L85.6794 32.5702L86.432 32.9135L88.4979 28.3964L83.8428 26.6648L83.5535 27.4399L86.8083 28.6497L47.7631 44.8231L77.6451 14.9395L77.5192 18.4072L78.3468 18.4372L78.5267 13.4733L73.5628 13.6532L73.5928 14.4808L77.062 14.3534L47.1784 44.2384L63.3503 5.19323L64.5601 8.4465L65.3352 8.15716L63.6036 3.50213L59.0865 5.56803L59.4298 6.32063L62.5872 4.8754L46.4138 43.9221V1.66112L48.7765 4.20226L49.3822 3.63706L46 0L42.6178 3.63706L43.2235 4.20226L45.5862 1.65962V45.5862H1.65962L4.20226 43.2235L3.63706 42.6178L0 46L3.63706 49.3822L4.20226 48.7765L1.66112 46.4138H43.9206L4.8754 62.5872L6.32063 59.4298L5.56803 59.0865L3.50213 63.6036L8.15716 65.3352L8.4465 64.5601L5.19473 63.3503L44.2384 47.1784L14.3534 77.062L14.4808 73.5928L13.6547 73.5628L13.4733 78.5267L18.4372 78.3468L18.4072 77.5192L14.9395 77.6451L44.8231 47.7631L28.6497 86.8083L27.4399 83.5535L26.6648 83.8428L28.3964 88.4979L32.9135 86.432L32.5702 85.6794L29.4143 87.1231L45.5862 48.0794V90.3404L43.2235 87.7977L42.6178 88.3629L46 92L49.3822 88.3629L48.7765 87.7977L46.4138 90.3389Z" fill="white"/>
</svg>
