<svg width="92" height="92" viewBox="0 0 92 92" fill="none" xmlns="http://www.w3.org/2000/svg">
  <path d="M87.3205 0.961394L90.6084 0.837847L77.8706 13.5916H49.6517V27.5723H35.6574V41.553H21.7242V55.7482H7.7285V84.4949H36.5032V70.2997H50.4975V56.319H64.4307V42.3369H78.4264V14.144L91.1656 1.38884L91.049 4.67491L91.8337 4.70189L92 0L87.2935 0.176089L87.322 0.959975L87.3205 0.961394ZM77.0874 14.3741L63.9048 27.5723H50.4335V14.3741H77.0874ZM49.7114 55.5351H36.4392V42.3369H49.7114V55.5351ZM50.435 41.0588V28.3548H63.123L50.435 41.0588ZM63.6461 28.9413V41.553H51.049L63.6461 28.9413ZM36.4392 28.3548H49.6503V41.553H36.4392V28.3548ZM22.506 42.3369H35.656V55.7482H22.506V42.3369ZM35.7171 69.5158H22.506V56.5306H35.7171V69.5158ZM35.7171 83.711H8.51173V56.532H21.7228V70.2997H35.7171V83.711ZM49.7114 69.5158H36.5004V56.3176H49.7114V69.5158ZM63.6461 55.5351H50.4961V42.3369H63.6461V55.5351ZM77.6404 41.553H64.4293V28.156L77.6404 14.9293V41.553Z" fill="white"/>
  <path d="M81.167 50.7395L84.4549 50.616L43.6731 91.4476L44.2289 92L85.0107 51.1684L84.8941 54.4545L85.6788 54.4814L85.8451 49.7795L81.1386 49.9556L81.167 50.7395Z" fill="white"/>
  <path d="M0.554372 48.3694L41.3376 7.53637L41.2196 10.8224L42.0043 10.8494L42.1706 6.14895L37.4641 6.32362L37.494 7.10751L40.7804 6.98396L0 47.8156L0.554372 48.3694Z" fill="white"/>
</svg>
