<svg width="92" height="92" viewBox="0 0 92 92" fill="none" xmlns="http://www.w3.org/2000/svg">
  <path d="M88.647 18.0054C86.0335 15.3898 82.1092 14.3131 77.2355 14.7754C77.6777 9.99849 76.6651 6.01379 73.9963 3.34086C69.9201 -0.738672 62.6618 -1.09427 53.5579 2.34123C44.5961 5.72338 34.8645 12.3869 26.1535 21.1031C25.9403 21.3165 25.9403 21.6602 26.1535 21.8736C26.3666 22.0869 26.7101 22.0869 26.9233 21.8736C35.5258 13.2621 45.1232 6.68746 53.9428 3.36061C62.6223 0.0851371 69.47 0.353811 73.2264 4.11132C75.686 6.57287 76.5703 10.3462 76.0847 14.9058C73.6627 15.2456 71.0255 15.9429 68.2106 17.0058C59.2488 20.388 49.5172 27.0515 40.8061 35.7677C40.593 35.981 40.593 36.3248 40.8061 36.5382C41.0193 36.7515 41.3628 36.7515 41.576 36.5382C50.1805 27.9287 59.7759 21.352 68.5955 18.0252C71.2268 17.0315 73.6864 16.3697 75.9465 16.0279C74.5371 25.3822 67.7013 37.7176 56.9788 48.9131L57.042 44.31L55.9523 44.2962L55.8635 50.8392L62.3914 50.452L62.3282 49.3635L57.798 49.6322C68.9054 38.0317 75.8084 25.4968 77.1151 15.8797C81.7579 15.3918 85.463 16.3558 87.8811 18.7759C95.4512 26.3522 88.1574 46.3211 71.6334 63.5757L71.6966 58.9726L70.607 58.9588L70.5182 65.5018L77.046 65.1146L76.9829 64.0261L72.4526 64.2948C89.6458 46.3389 96.7698 26.1289 88.6529 18.0054H88.647Z" fill="white"/>
  <path d="M65.074 70.176C47.415 87.8494 26.643 95.8168 18.7709 87.9383C16.3113 85.4767 15.427 81.6994 15.9126 77.1379C18.3366 76.7981 20.9698 76.1086 23.7867 75.0458C32.7485 71.6636 42.4801 65 51.1911 56.2839C51.4043 56.0705 51.4043 55.7268 51.1911 55.5134C50.978 55.3 50.6345 55.3 50.4213 55.5134C41.8188 64.1229 32.2214 70.6995 23.4018 74.0264C20.7705 75.0201 18.3109 75.6819 16.0507 76.0237C17.4601 66.6694 24.296 54.334 35.0185 43.1385L34.9553 47.7416L36.045 47.7554L36.1338 41.2123L29.6059 41.5995L29.6691 42.6881L34.1993 42.4194C23.0918 54.0199 16.1889 66.5548 14.8841 76.1718C10.2414 76.6598 6.53626 75.6937 4.11816 73.2757C-3.45197 65.6994 3.84181 45.7304 20.3658 28.4759L20.3026 33.079L21.3923 33.0928L21.4811 26.5497L14.9532 26.9369L15.0164 28.0255L19.5466 27.7568C2.35344 45.7127 -4.77057 65.9226 3.34832 74.0461C5.57099 76.2706 8.73722 77.3868 12.6338 77.3868C13.3188 77.3868 14.0314 77.3453 14.7598 77.2762C14.3176 82.0531 15.3302 86.0378 17.999 88.7107C20.2296 90.9431 23.4116 92 27.2214 92C37.5886 92 52.6183 84.1827 65.8419 70.9484C66.055 70.7351 66.055 70.3913 65.8419 70.178C65.6287 69.9646 65.2852 69.9646 65.072 70.178L65.074 70.176Z" fill="white"/>
</svg>
