<svg width="93" height="92" viewBox="0 0 93 92" fill="none" xmlns="http://www.w3.org/2000/svg">
  <path
      d="M92.2266 92V45.5855H77.0357V30.6512H61.8433V0H30.6083V30.6512H15.4174V45.5855H0.226562V92H92.2266ZM91.3764 46.4145V91.1726H77.0357V46.4145H91.3764ZM76.184 31.4801V45.587H61.8433V31.4801H76.184ZM31.46 0.827437H60.9916V30.6512H31.46V0.827437ZM16.2692 31.4801H30.6098V45.587H16.2692V31.4801ZM1.07676 91.1726V46.4145H15.4174V91.1726H1.07676ZM16.2692 91.1726V46.4145H30.6098V91.1726H16.2692ZM31.46 91.1726V31.4801H45.8007V91.1726H31.46ZM46.6524 91.1726V31.4801H60.9931V91.1726H46.6524ZM61.8433 91.1726V46.4145H76.184V91.1726H61.8433Z"
      fill="white"/>
</svg>
