<svg width="92" height="92" viewBox="0 0 92 92" fill="none" xmlns="http://www.w3.org/2000/svg">
  <path d="M88.6081 44.5166L86.3331 42.2374L85.7967 42.7739L89.0166 45.9979L91.9986 42.5524L91.4251 42.0545L89.366 44.4354C88.5958 22.6757 71.8455 4.83747 50.1147 2.79492L50.0432 3.55005C71.4122 5.55959 87.8791 23.1131 88.6095 44.5152L88.6081 44.5166Z" fill="white"/>
  <path d="M89.2037 50.0954L88.4486 50.0253C86.4473 71.4039 68.8924 87.8778 47.4821 88.6095L49.7612 86.3345L49.2248 85.7981L46.0007 89.018L49.4462 92L49.9441 91.4264L47.5632 89.3674C69.3311 88.5985 87.1708 71.84 89.2065 50.0982L89.2037 50.0954Z" fill="white"/>
  <path d="M3.39049 47.482L5.66549 49.7612L6.20192 49.2248L2.98198 46.0007L0 49.4462L0.573564 49.9441L2.63262 47.5632C3.4015 69.3298 20.1587 87.1694 41.8991 89.2065L41.9692 88.4513C20.5919 86.4487 4.11948 68.8937 3.38774 47.4848L3.39049 47.482Z" fill="white"/>
  <path d="M44.5166 3.39049L42.2374 5.66549L42.7739 6.20192L45.9979 2.98198L42.5524 0L42.0545 0.573564L44.4354 2.63262C22.6771 3.4015 4.83885 20.1531 2.79492 41.8839L3.55005 41.9555C5.55959 20.5864 23.1131 4.11948 44.5152 3.38912L44.5166 3.39049Z" fill="white"/>
  <path d="M69.5237 28.7277L73.9348 29.8707L74.7546 25.3881L74.0077 25.2506L73.4424 28.3495C64.6945 14.7256 47.2056 9.54153 32.4332 16.3129L32.7496 17.0034C47.1932 10.3819 64.2942 15.4629 72.8303 28.7993L69.7149 27.9919L69.5251 28.7277H69.5237Z" fill="white"/>
  <path d="M75.6789 32.4208L74.9898 32.7372C81.6195 47.1836 76.5413 64.2901 63.1994 72.8303L64.0068 69.7149L63.2709 69.5251L62.1279 73.9362L66.6105 74.7559L66.748 74.0091L63.6491 73.4437C77.2785 64.6917 82.4612 47.1987 75.6802 32.4222L75.6789 32.4208Z" fill="white"/>
  <path d="M18.5549 63.656C24.7128 73.2429 35.1965 78.6485 46.0186 78.6485C50.5782 78.6485 55.197 77.6898 59.5751 75.6802L59.2587 74.9911C44.8123 81.6194 27.7071 76.5399 19.1683 63.1994L22.2837 64.0068L22.4735 63.2709L18.0625 62.1279L17.2427 66.6105L17.9896 66.748L18.5535 63.656H18.5549Z" fill="white"/>
  <path d="M28.8006 19.1697L27.9932 22.2851L28.7291 22.4749L29.8721 18.0638L25.3895 17.2441L25.252 17.9909L28.3509 18.5563C14.727 27.3041 9.5429 44.793 16.3143 59.5654L17.0047 59.2491C10.3833 44.8068 15.4642 27.7058 28.8006 19.1683V19.1697Z" fill="white"/>
  <path d="M28.1652 33.308L28.7841 33.7468L28.7869 33.7495C34.766 25.3276 46.0557 22.5066 55.2836 27.029L52.1737 27.9795V27.9822H52.1724L52.3952 28.7085L56.7526 27.3743L56.7554 27.3715L55.1089 23.1228L54.4006 23.3965V23.3992H54.3992L55.5216 26.2932C45.9787 21.6758 34.341 24.6096 28.1679 33.3066L28.1652 33.308Z" fill="white"/>
  <path d="M64.0164 52.1737V52.1723L63.2902 52.3952L64.6243 56.7526H64.6271V56.754L68.8759 55.1076L68.6022 54.3992H68.5994V54.3978L65.7055 55.5202C70.3256 45.9745 67.3876 34.3341 58.6851 28.161L58.2464 28.78L58.2436 28.7827C66.6724 34.7618 69.4962 46.053 64.971 55.2836L64.0205 52.1737H64.0164Z" fill="white"/>
  <path d="M63.8376 58.6851L63.2186 58.2463H63.2159C57.2368 66.671 45.9457 69.4948 36.715 64.9709L39.8249 64.0205V64.0178H39.8263L39.6035 63.2915L35.246 64.6257V64.6285H35.2446L36.8911 68.8772L37.5994 68.6035V68.6008H37.6008L36.4757 65.6986C39.5085 67.1675 42.7477 67.8828 45.9608 67.8828C52.8628 67.8828 59.6246 64.6271 63.8362 58.6879L63.8376 58.6851Z" fill="white"/>
  <path d="M27.029 36.715L27.9795 39.8249H27.9822V39.8263L28.7085 39.6034L27.3757 35.246H27.3729V35.2446L23.1241 36.8911L23.3979 37.5994H23.4006V37.6008L26.2946 36.4784C21.6772 46.0213 24.611 57.659 33.308 63.8321L33.7468 63.2131L33.7495 63.2104C25.3276 57.2313 22.5066 45.9415 27.029 36.7136V36.715Z" fill="white"/>
</svg>
