<svg width="92" height="92" viewBox="0 0 92 92" fill="none" xmlns="http://www.w3.org/2000/svg">
  <path d="M87.7977 43.2235L90.3404 45.5862H47.5427L84.6059 24.1881L83.5865 27.5058L84.3781 27.7472L85.8368 22.9992L80.9959 21.8898L80.81 22.6964L84.1936 23.4715L47.1304 44.8711L68.5285 7.80784L69.3036 11.19L70.1102 11.0041L68.9992 6.16322L64.2528 7.62194L64.4941 8.41352L67.8134 7.39256L46.4138 44.4558V1.66112L48.7765 4.20226L49.3822 3.63706L46 0L42.6178 3.63706L43.2235 4.20226L45.5862 1.65812V44.4558L24.1881 7.39406L27.5058 8.41352L27.7472 7.62194L22.9992 6.16322L21.8898 11.0041L22.6964 11.19L23.4715 7.80634L44.8711 44.8696L7.80784 23.4715L11.19 22.6964L11.0041 21.8898L6.16322 23.0007L7.62194 27.7472L8.41352 27.5058L7.39256 24.1866L44.4588 45.5862H1.65962L4.20226 43.2235L3.63706 42.6178L0 46L3.63706 49.3822L4.20226 48.7765L1.66112 46.4138H44.4573L7.39256 67.8134L8.41352 64.4941L7.62194 64.2528L6.16322 68.9992L11.0041 70.1102L11.19 69.3036L7.80784 68.5285L44.8711 47.1304L23.4715 84.1936L22.6964 80.81L21.8898 80.9959L22.9992 85.8368L27.7472 84.3781L27.5058 83.5865L24.1881 84.6059L45.5862 47.5427V90.3404L43.2235 87.7977L42.6178 88.3614L46 92L49.3822 88.3614L48.7765 87.7977L46.4138 90.3389V47.5427L67.8134 84.6074L64.4941 83.5865L64.2528 84.3781L68.9992 85.8368L70.1102 80.9959L69.3036 80.81L68.5285 84.1922L47.1304 47.1289L84.1936 68.5285L80.81 69.3036L80.9959 70.1102L85.8368 68.9992L84.3781 64.2528L83.5865 64.4941L84.6059 67.8119L47.5442 46.4138H90.3389L87.7977 48.7765L88.3629 49.3822L92 46L88.3629 42.6178L87.7977 43.2235Z" fill="white"/>
</svg>
